<?xml version="1.0" standalone="no"?>
<!DOCTYPE svg PUBLIC "-//W3C//DTD SVG 20010904//EN"
 "http://www.w3.org/TR/2001/REC-SVG-20010904/DTD/svg10.dtd">
<svg version="1.0" xmlns="http://www.w3.org/2000/svg"
 width="233.000000pt" height="37.000000pt" viewBox="0 0 233.000000 37.000000"
 preserveAspectRatio="xMidYMid meet">

<g transform="translate(0.000000,37.000000) scale(0.100000,-0.100000)"
fill="#000000" stroke="none">
<path d="M50 211 c-50 -50 -52 -106 -4 -154 42 -42 77 -44 146 -8 l59 31 26
-20 c22 -17 93 -44 99 -37 5 5 -11 21 -112 120 -95 91 -104 97 -143 97 -33 0
-49 -6 -71 -29z m120 -57 l31 -27 -28 -18 c-52 -35 -93 -22 -93 30 0 45 45 53
90 15z"/>
</g>
</svg>
