<?xml version="1.0" encoding="UTF-8"?>
<svg version="1.1" xmlns="http://www.w3.org/2000/svg" width="233" height="37">
<path d="M0 0 C3.34244783 1.59164182 5.32412233 3.64824467 7 7 C7.68323773 13.83237731 7.68323773 13.83237731 5.953125 16.7890625 C4.10541358 18.99544732 2.0336526 20.9663474 0 23 C2.31 23.66 4.62 24.32 7 25 C7 27.64 7 30.28 7 33 C2.02125225 32.76950242 -1.81889378 32.31338046 -6.125 29.6875 C-8.02625793 28.54377229 -8.02625793 28.54377229 -10 28 C-13.39620262 29.45451529 -13.39620262 29.45451529 -15.3515625 30.890625 C-17.90342055 32.60798919 -19.94899403 32.93643738 -23 33 C-26.50956285 31.86980179 -29.12630624 30.78632438 -31.875 28.3125 C-34.19467632 23.54427646 -34.54522498 19.60538466 -32.875 14.6875 C-30.75851274 11.65386826 -29.41912313 10.39873219 -26 9 C-22.1875 8.8125 -22.1875 8.8125 -19 9 C-18.9175 8.071875 -18.835 7.14375 -18.75 6.1875 C-18 3 -18 3 -16.3828125 1.33203125 C-11.45153849 -1.42463176 -5.45315489 -0.69507189 0 0 Z M-18 9 C-16.9171875 9.86625 -16.9171875 9.86625 -15.8125 10.75 C-13.20833333 12.83333333 -10.60416667 14.91666667 -8 17 C-3.73628654 14.65772302 -3.73628654 14.65772302 -1.0625 10.8125 C-1.041875 10.214375 -1.02125 9.61625 -1 9 C-1.98001874 7.80205544 -1.98001874 7.80205544 -3.8203125 7.8671875 C-8.65404071 7.88357302 -13.23373473 8.1887208 -18 9 Z M-24 17 C-24.66 18.32 -25.32 19.64 -26 21 C-25.01 22.485 -25.01 22.485 -24 24 C-21.54258463 24.50014953 -21.54258463 24.50014953 -19 24 C-17.18523997 22.60414215 -17.18523997 22.60414215 -16 21 C-17.74934898 18.91666921 -17.74934898 18.91666921 -20 17 C-21.32 17 -22.64 17 -24 17 Z " fill="#22A3FA" transform="translate(34,3)"/>
<path d="M0 0 C3.9305422 0.13074409 3.9305422 0.13074409 7.4375 -0.6875 C11.49756194 -1.04364578 12.85867743 -0.49457969 16 2 C17.59412284 5.18824568 17.10174735 8.62896662 17.0625 12.125 C17.05798828 12.87910156 17.05347656 13.63320313 17.04882812 14.41015625 C17.03703499 16.27347127 17.01909942 18.13674555 17 20 C15.02 20 13.04 20 11 20 C10.505 13.565 10.505 13.565 10 7 C8.68 7 7.36 7 6 7 C5.67 11.29 5.34 15.58 5 20 C3.02 20 1.04 20 -1 20 C-1.33 15.71 -1.66 11.42 -2 7 C-3.32 6.67 -4.64 6.34 -6 6 C-6.33 10.62 -6.66 15.24 -7 20 C-9.31 20 -11.62 20 -14 20 C-14.57203966 5.72019526 -14.57203966 5.72019526 -11 1 C-7.49404202 -1.87989405 -4.23651702 -0.7565209 0 0 Z " fill="#FFFFFF" transform="translate(108,8)"/>
<path d="M0 0 C1.98 0 3.96 0 6 0 C6.33 4.95 6.66 9.9 7 15 C8.65 15 10.3 15 12 15 C13.94090826 13.05909174 13.39919435 9.52706098 13.5625 6.9375 C13.64628906 5.64714844 13.73007813 4.35679688 13.81640625 3.02734375 C13.87699219 2.02832031 13.93757812 1.02929688 14 0 C15.98 0 17.96 0 20 0 C20.14547545 4.06212212 20.23413226 8.12357287 20.3125 12.1875 C20.35439453 13.33798828 20.39628906 14.48847656 20.43945312 15.67382812 C20.56266824 24.17567135 20.56266824 24.17567135 17.765625 28.2734375 C14.95941787 30.02533517 13.68954082 30.61282742 10.4375 30.4375 C9.69371094 30.41558594 8.94992188 30.39367187 8.18359375 30.37109375 C5.7581661 29.95890121 4.07906358 29.3123807 2 28 C0.75 25.375 0.75 25.375 0 23 C4.16138263 22.91840426 7.9472484 23.01751476 12 24 C12.33 23.01 12.66 22.02 13 21 C11.948125 21.3403125 11.948125 21.3403125 10.875 21.6875 C7.03071353 22.10535722 5.21500935 21.07189491 2 19 C-0.58700329 15.39203888 -0.22953865 11.50391882 -0.125 7.25 C-0.11597656 6.55261719 -0.10695313 5.85523438 -0.09765625 5.13671875 C-0.07419888 3.42433042 -0.03833104 1.71211996 0 0 Z " fill="#FFFFFF" transform="translate(127,7)"/>
<path d="M0 0 C3.1786241 2.5699514 4.70728109 4.12184327 6 8 C6.068991 10.06145107 6.08467727 12.12501401 6.0625 14.1875 C6.05347656 15.27417969 6.04445313 16.36085938 6.03515625 17.48046875 C6.02355469 18.31191406 6.01195313 19.14335937 6 20 C4.88625 19.979375 3.7725 19.95875 2.625 19.9375 C-0.83215921 19.73619282 -0.83215921 19.73619282 -3 21 C-8.26883876 21.59873168 -10.8846468 20.25400021 -15 17 C-16.74348951 13.51302098 -16.58082725 9.80409937 -16 6 C-12.41311912 -0.7028971 -7.0833282 -2.04353328 0 0 Z M-8.75 6.125 C-10.33274301 8.07035975 -10.33274301 8.07035975 -9.6875 11.1875 C-9.460625 12.115625 -9.23375 13.04375 -9 14 C-6.09926819 14.67801034 -6.09926819 14.67801034 -3 15 C-0.69337401 13.11340125 -0.69337401 13.11340125 -0.6875 10 C-0.790625 9.01 -0.89375 8.02 -1 7 C-4.08773539 4.94150974 -5.49960445 4.03546 -8.75 6.125 Z " fill="#FFFFFF" transform="translate(87,8)"/>
<path d="M0 0 C2.86094219 2.44372146 4.64101195 4.23267422 5.40625 8 C5.6088753 12.45775659 4.82279478 15.57232062 2 19 C-1.42765252 21.57073939 -4.83971296 21.43037452 -9 21 C-12.05992005 19.38343846 -14.24119476 17.9237629 -16.4375 15.25 C-17.32549176 11.69803296 -17.07629591 8.45511553 -16 5 C-11.45625859 -0.61989069 -6.99565958 -2.17763722 0 0 Z M-10 7 C-10.41666667 10 -10.41666667 10 -10 13 C-9.34 13.66 -8.68 14.32 -8 15 C-4.90073181 14.67801034 -4.90073181 14.67801034 -2 14 C-1.23283149 11.14921909 -1.23283149 11.14921909 -1 8 C-2.12640605 6.03959519 -2.12640605 6.03959519 -4 5 C-7.18490007 4.7226499 -7.18490007 4.7226499 -10 7 Z " fill="#FFFFFF" transform="translate(186,8)"/>
<path d="M0 0 C0 2.64 0 5.28 0 8 C-0.639375 8.103125 -1.27875 8.20625 -1.9375 8.3125 C-2.618125 8.539375 -3.29875 8.76625 -4 9 C-4.33 9.99 -4.66 10.98 -5 12 C-4.67 12.66 -4.34 13.32 -4 14 C-0.14354879 14.22036864 2.49223216 13.60355101 6 12 C8 13.8125 8 13.8125 10 16 C10 16.99 10 17.98 10 19 C2.10709318 23.89360223 2.10709318 23.89360223 -3 24 C-6.50956285 22.86980179 -9.12630624 21.78632438 -11.875 19.3125 C-14.19467632 14.54427646 -14.54522498 10.60538466 -12.875 5.6875 C-9.34445192 0.62704775 -6.05667051 -0.42255841 0 0 Z " fill="#7868F5" transform="translate(14,12)"/>
<path d="M0 0 C2.5 2.3125 2.5 2.3125 4 5 C4 6.32 4 7.64 4 9 C1.125 9.1875 1.125 9.1875 -2 9 C-2.66 8.01 -3.32 7.02 -4 6 C-5.32 6 -6.64 6 -8 6 C-8 10.62 -8 15.24 -8 20 C-9.98 20 -11.96 20 -14 20 C-14.08112454 17.41603321 -14.14054748 14.83462432 -14.1875 12.25 C-14.21263672 11.52039062 -14.23777344 10.79078125 -14.26367188 10.0390625 C-14.30798412 6.78949814 -14.2353876 4.43605727 -12.67578125 1.546875 C-9.00562073 -1.84096548 -4.52024146 -1.33697282 0 0 Z " fill="#FFFFFF" transform="translate(65,8)"/>
<path d="M0 0 C2.56411851 2.24360369 2.95630886 3.35919663 3.1875 6.75 C3.0946875 7.86375 3.0946875 7.86375 3 9 C1.02 9 -0.96 9 -3 9 C-3.33 8.01 -3.66 7.02 -4 6 C-4.99 6 -5.98 6 -7 6 C-8.35091528 8.70183055 -8.33858058 11.11808206 -8.5625 14.125 C-8.64628906 15.22070312 -8.73007813 16.31640625 -8.81640625 17.4453125 C-8.87699219 18.28835937 -8.93757812 19.13140625 -9 20 C-10.98 20 -12.96 20 -15 20 C-15.0814222 17.77144426 -15.13938079 15.54202345 -15.1875 13.3125 C-15.22230469 12.07113281 -15.25710937 10.82976563 -15.29296875 9.55078125 C-14.98188123 5.78040054 -14.24201724 3.99485146 -12 1 C-8.4519209 -1.89102741 -4.17074983 -1.22200314 0 0 Z " fill="#FFFFFF" transform="translate(164,8)"/>
<path d="M0 0 C0 2.64 0 5.28 0 8 C-2.31 8.66 -4.62 9.32 -7 10 C-8.65 8.35 -10.3 6.7 -12 5 C-7.81374099 0.67419902 -6.05150555 -0.13155447 0 0 Z " fill="#447CFA" transform="translate(14,12)"/>
<path d="M0 0 C2.56269497 1.04109483 4.02610343 2.02610343 6 4 C6 4.99 6 5.98 6 7 C4.02 7.99 2.04 8.98 0 10 C-0.103125 9.360625 -0.20625 8.72125 -0.3125 8.0625 C-0.539375 7.381875 -0.76625 6.70125 -1 6 C-1.99 5.67 -2.98 5.34 -4 5 C-2.25 1.125 -2.25 1.125 0 0 Z " fill="#447CFB" transform="translate(18,24)"/>
<path d="M0 0 C2.82059747 1.41029874 2.98101714 3.07891581 4 6 C4.35858516 7.32676508 4.7018576 8.65835921 5 10 C5.66 10 6.32 10 7 10 C7 10.66 7 11.32 7 12 C7.99 12.33 8.98 12.66 10 13 C9.01 13.33 8.02 13.66 7 14 C3.14314413 11.55418896 1.18589364 9.42014901 0 5 C-0.125 2.1875 -0.125 2.1875 0 0 Z " fill="#905EF2" transform="translate(0,21)"/>
<path d="M0 0 C0.99 0 1.98 0 3 0 C5.25 2.3125 5.25 2.3125 7 5 C6.67 5.99 6.34 6.98 6 8 C4.68 8 3.36 8 2 8 C2 5.69 2 3.38 2 1 C1.34 0.67 0.68 0.34 0 0 Z " fill="#6B6DF7" transform="translate(11,27)"/>
<path d="M0 0 C0.99 0 1.98 0 3 0 C3 2.97 3 5.94 3 9 C2.34 7.68 1.68 6.36 1 5 C0.01 4.67 -0.98 4.34 -2 4 C-1.34 2.68 -0.68 1.36 0 0 Z " fill="#5376F9" transform="translate(16,25)"/>
<path d="M0 0 C0 2.31 0 4.62 0 7 C-0.66 7 -1.32 7 -2 7 C-3.625 5 -3.625 5 -5 3 C-3.82137388 0.64274776 -2.79264635 0 0 0 Z " fill="#5774F8" transform="translate(7,14)"/>
<path d="M0 0 C1.98 0 3.96 0 6 0 C6 2.31 6 4.62 6 7 C5.38125 6.360625 4.7625 5.72125 4.125 5.0625 C2.17402388 2.96116416 2.17402388 2.96116416 0 2 C0 1.34 0 0.68 0 0 Z " fill="#2C85FC" transform="translate(8,12)"/>
<path d="M0 0 C1.98 0.495 1.98 0.495 4 1 C3.67 2.32 3.34 3.64 3 5 C1.68 5 0.36 5 -1 5 C-0.67 3.35 -0.34 1.7 0 0 Z " fill="#FFFFFF" transform="translate(3,4)"/>
</svg>
